<mxfile host="Electron" modified="2023-06-15T18:33:18.462Z" agent="Mozilla/5.0 (Macintosh; Intel Mac OS X 10_15_7) AppleWebKit/537.36 (KHTML, like Gecko) draw.io/21.3.7 Chrome/112.0.5615.204 Electron/24.5.0 Safari/537.36" etag="9u-F_Ed6HlWGk6y0px_-" version="21.3.7" type="device">
  <diagram name="Page-1" id="RcIG-ENsvXDdS8c3DJff">
    <mxGraphModel dx="940" dy="713" grid="1" gridSize="10" guides="1" tooltips="1" connect="1" arrows="1" fold="1" page="1" pageScale="1" pageWidth="1169" pageHeight="827" math="0" shadow="0">
      <root>
        <mxCell id="0" />
        <mxCell id="1" parent="0" />
        <mxCell id="9AJ_TKvjgR83UUV6YRzX-1" value="&lt;font style=&quot;font-size: 16px;&quot;&gt;App&lt;/font&gt;" style="rounded=0;whiteSpace=wrap;html=1;fillColor=#b1ddf0;strokeColor=#10739e;fontFamily=Times New Roman;" vertex="1" parent="1">
          <mxGeometry x="440" y="120" width="120" height="40" as="geometry" />
        </mxCell>
        <mxCell id="9AJ_TKvjgR83UUV6YRzX-2" value="&lt;font style=&quot;font-size: 16px;&quot;&gt;Join&lt;/font&gt;" style="rounded=0;whiteSpace=wrap;html=1;fillColor=#dae8fc;strokeColor=#6c8ebf;fontFamily=Times New Roman;" vertex="1" parent="1">
          <mxGeometry x="440" y="240" width="120" height="40" as="geometry" />
        </mxCell>
        <mxCell id="9AJ_TKvjgR83UUV6YRzX-3" value="&lt;font style=&quot;font-size: 16px;&quot;&gt;Login&lt;/font&gt;" style="rounded=0;whiteSpace=wrap;html=1;fillColor=#dae8fc;strokeColor=#6c8ebf;fontFamily=Times New Roman;" vertex="1" parent="1">
          <mxGeometry x="280" y="240" width="120" height="40" as="geometry" />
        </mxCell>
        <mxCell id="9AJ_TKvjgR83UUV6YRzX-4" value="&lt;font style=&quot;font-size: 16px;&quot;&gt;Register&lt;/font&gt;" style="rounded=0;whiteSpace=wrap;html=1;fillColor=#dae8fc;strokeColor=#6c8ebf;fontFamily=Times New Roman;" vertex="1" parent="1">
          <mxGeometry x="120" y="240" width="120" height="40" as="geometry" />
        </mxCell>
        <mxCell id="9AJ_TKvjgR83UUV6YRzX-5" value="&lt;font style=&quot;font-size: 16px;&quot;&gt;Home&lt;/font&gt;" style="rounded=0;whiteSpace=wrap;html=1;fillColor=#dae8fc;strokeColor=#6c8ebf;fontFamily=Times New Roman;" vertex="1" parent="1">
          <mxGeometry x="600" y="240" width="120" height="40" as="geometry" />
        </mxCell>
        <mxCell id="9AJ_TKvjgR83UUV6YRzX-6" value="&lt;font style=&quot;font-size: 16px;&quot;&gt;Team&lt;/font&gt;" style="rounded=0;whiteSpace=wrap;html=1;fillColor=#dae8fc;strokeColor=#6c8ebf;fontFamily=Times New Roman;" vertex="1" parent="1">
          <mxGeometry x="760" y="240" width="120" height="40" as="geometry" />
        </mxCell>
        <mxCell id="9AJ_TKvjgR83UUV6YRzX-7" value="" style="endArrow=classic;html=1;rounded=0;exitX=0.5;exitY=1;exitDx=0;exitDy=0;entryX=0.5;entryY=0;entryDx=0;entryDy=0;fontFamily=Times New Roman;" edge="1" parent="1" source="9AJ_TKvjgR83UUV6YRzX-1" target="9AJ_TKvjgR83UUV6YRzX-2">
          <mxGeometry width="50" height="50" relative="1" as="geometry">
            <mxPoint x="500" y="330" as="sourcePoint" />
            <mxPoint x="550" y="280" as="targetPoint" />
          </mxGeometry>
        </mxCell>
        <mxCell id="9AJ_TKvjgR83UUV6YRzX-8" value="" style="endArrow=none;html=1;rounded=0;fontFamily=Times New Roman;" edge="1" parent="1">
          <mxGeometry width="50" height="50" relative="1" as="geometry">
            <mxPoint x="180" y="200" as="sourcePoint" />
            <mxPoint x="820" y="200" as="targetPoint" />
          </mxGeometry>
        </mxCell>
        <mxCell id="9AJ_TKvjgR83UUV6YRzX-9" value="" style="endArrow=classic;html=1;rounded=0;entryX=0.5;entryY=0;entryDx=0;entryDy=0;fontFamily=Times New Roman;" edge="1" parent="1">
          <mxGeometry width="50" height="50" relative="1" as="geometry">
            <mxPoint x="180" y="200" as="sourcePoint" />
            <mxPoint x="179.5" y="240" as="targetPoint" />
          </mxGeometry>
        </mxCell>
        <mxCell id="9AJ_TKvjgR83UUV6YRzX-10" value="" style="endArrow=classic;html=1;rounded=0;entryX=0.5;entryY=0;entryDx=0;entryDy=0;fontFamily=Times New Roman;" edge="1" parent="1">
          <mxGeometry width="50" height="50" relative="1" as="geometry">
            <mxPoint x="340.25" y="200" as="sourcePoint" />
            <mxPoint x="339.75" y="240" as="targetPoint" />
          </mxGeometry>
        </mxCell>
        <mxCell id="9AJ_TKvjgR83UUV6YRzX-11" value="" style="endArrow=classic;html=1;rounded=0;entryX=0.5;entryY=0;entryDx=0;entryDy=0;fontFamily=Times New Roman;" edge="1" parent="1">
          <mxGeometry width="50" height="50" relative="1" as="geometry">
            <mxPoint x="660.25" y="200" as="sourcePoint" />
            <mxPoint x="659.75" y="240" as="targetPoint" />
          </mxGeometry>
        </mxCell>
        <mxCell id="9AJ_TKvjgR83UUV6YRzX-12" value="" style="endArrow=classic;html=1;rounded=0;entryX=0.5;entryY=0;entryDx=0;entryDy=0;fontFamily=Times New Roman;" edge="1" parent="1">
          <mxGeometry width="50" height="50" relative="1" as="geometry">
            <mxPoint x="820.25" y="200" as="sourcePoint" />
            <mxPoint x="819.75" y="240" as="targetPoint" />
          </mxGeometry>
        </mxCell>
        <mxCell id="9AJ_TKvjgR83UUV6YRzX-13" value="&lt;font style=&quot;font-size: 16px;&quot;&gt;WelcomeMessage&lt;/font&gt;" style="rounded=0;whiteSpace=wrap;html=1;fillColor=#f5f5f5;fontColor=#333333;strokeColor=#666666;fontFamily=Times New Roman;" vertex="1" parent="1">
          <mxGeometry x="400" y="360" width="160" height="40" as="geometry" />
        </mxCell>
        <mxCell id="9AJ_TKvjgR83UUV6YRzX-14" value="&lt;font style=&quot;font-size: 16px;&quot;&gt;FirstRegisterForm&lt;/font&gt;" style="rounded=0;whiteSpace=wrap;html=1;fillColor=#f5f5f5;fontColor=#333333;strokeColor=#666666;fontFamily=Times New Roman;" vertex="1" parent="1">
          <mxGeometry y="360" width="160" height="40" as="geometry" />
        </mxCell>
        <mxCell id="9AJ_TKvjgR83UUV6YRzX-15" value="&lt;font style=&quot;font-size: 16px;&quot;&gt;SecondRegisterForm&lt;/font&gt;" style="rounded=0;whiteSpace=wrap;html=1;fillColor=#f5f5f5;fontColor=#333333;strokeColor=#666666;fontFamily=Times New Roman;" vertex="1" parent="1">
          <mxGeometry x="200" y="360" width="160" height="40" as="geometry" />
        </mxCell>
        <mxCell id="9AJ_TKvjgR83UUV6YRzX-16" value="&lt;font style=&quot;font-size: 16px;&quot;&gt;CreateEventForm&lt;/font&gt;" style="rounded=0;whiteSpace=wrap;html=1;fillColor=#f5f5f5;fontColor=#333333;strokeColor=#666666;fontFamily=Times New Roman;" vertex="1" parent="1">
          <mxGeometry x="600" y="360" width="120" height="40" as="geometry" />
        </mxCell>
        <mxCell id="9AJ_TKvjgR83UUV6YRzX-17" value="&lt;font style=&quot;font-size: 16px;&quot;&gt;EventCard&lt;/font&gt;" style="rounded=0;whiteSpace=wrap;html=1;fillColor=#f5f5f5;fontColor=#333333;strokeColor=#666666;fontFamily=Times New Roman;" vertex="1" parent="1">
          <mxGeometry x="760" y="360" width="120" height="40" as="geometry" />
        </mxCell>
        <mxCell id="9AJ_TKvjgR83UUV6YRzX-18" value="&lt;font style=&quot;font-size: 16px;&quot;&gt;Navbar&lt;/font&gt;" style="rounded=0;whiteSpace=wrap;html=1;fillColor=#f5f5f5;fontColor=#333333;strokeColor=#666666;fontFamily=Times New Roman;" vertex="1" parent="1">
          <mxGeometry x="920" y="360" width="80" height="40" as="geometry" />
        </mxCell>
        <mxCell id="9AJ_TKvjgR83UUV6YRzX-27" value="" style="endArrow=classic;html=1;rounded=0;edgeStyle=elbowEdgeStyle;elbow=vertical;fontFamily=Times New Roman;exitX=0.823;exitY=1.025;exitDx=0;exitDy=0;exitPerimeter=0;entryX=0.441;entryY=0;entryDx=0;entryDy=0;entryPerimeter=0;" edge="1" parent="1" source="9AJ_TKvjgR83UUV6YRzX-3" target="9AJ_TKvjgR83UUV6YRzX-13">
          <mxGeometry width="50" height="50" relative="1" as="geometry">
            <mxPoint x="800" y="280" as="sourcePoint" />
            <mxPoint x="460" y="350" as="targetPoint" />
            <Array as="points">
              <mxPoint x="460" y="300" />
              <mxPoint x="440" y="300" />
              <mxPoint x="790" y="320" />
              <mxPoint x="710" y="320" />
              <mxPoint x="770" y="320" />
            </Array>
          </mxGeometry>
        </mxCell>
        <mxCell id="9AJ_TKvjgR83UUV6YRzX-34" value="" style="rounded=0;whiteSpace=wrap;html=1;fillColor=#b1ddf0;strokeColor=#10739e;fontFamily=Times New Roman;" vertex="1" parent="1">
          <mxGeometry x="40" y="80" width="20" height="20" as="geometry" />
        </mxCell>
        <mxCell id="9AJ_TKvjgR83UUV6YRzX-35" value="" style="rounded=0;whiteSpace=wrap;html=1;fillColor=#dae8fc;strokeColor=#6c8ebf;fontFamily=Times New Roman;" vertex="1" parent="1">
          <mxGeometry x="40" y="110" width="20" height="20" as="geometry" />
        </mxCell>
        <mxCell id="9AJ_TKvjgR83UUV6YRzX-36" value="" style="rounded=0;whiteSpace=wrap;html=1;fillColor=#f5f5f5;strokeColor=#666666;fontColor=#333333;fontFamily=Times New Roman;" vertex="1" parent="1">
          <mxGeometry x="40" y="140" width="20" height="20" as="geometry" />
        </mxCell>
        <mxCell id="9AJ_TKvjgR83UUV6YRzX-37" value="&lt;font style=&quot;font-size: 14px;&quot;&gt;Main App&lt;/font&gt;" style="text;html=1;strokeColor=none;fillColor=none;align=left;verticalAlign=middle;whiteSpace=wrap;rounded=0;fontFamily=Times New Roman;" vertex="1" parent="1">
          <mxGeometry x="80" y="75" width="80" height="30" as="geometry" />
        </mxCell>
        <mxCell id="9AJ_TKvjgR83UUV6YRzX-38" value="&lt;font style=&quot;font-size: 14px;&quot;&gt;Pages&lt;/font&gt;" style="text;html=1;strokeColor=none;fillColor=none;align=left;verticalAlign=middle;whiteSpace=wrap;rounded=0;fontFamily=Times New Roman;" vertex="1" parent="1">
          <mxGeometry x="80" y="105" width="80" height="30" as="geometry" />
        </mxCell>
        <mxCell id="9AJ_TKvjgR83UUV6YRzX-39" value="&lt;font style=&quot;font-size: 14px;&quot;&gt;Components&lt;/font&gt;" style="text;html=1;strokeColor=none;fillColor=none;align=left;verticalAlign=middle;whiteSpace=wrap;rounded=0;fontFamily=Times New Roman;" vertex="1" parent="1">
          <mxGeometry x="80" y="135" width="80" height="30" as="geometry" />
        </mxCell>
        <mxCell id="9AJ_TKvjgR83UUV6YRzX-40" value="&lt;font style=&quot;font-size: 14px;&quot;&gt;routing&lt;/font&gt;" style="text;html=1;strokeColor=none;fillColor=none;align=center;verticalAlign=middle;whiteSpace=wrap;rounded=0;fontFamily=Times New Roman;" vertex="1" parent="1">
          <mxGeometry x="570" y="170" width="60" height="30" as="geometry" />
        </mxCell>
        <mxCell id="9AJ_TKvjgR83UUV6YRzX-42" value="&lt;font style=&quot;font-size: 14px;&quot;&gt;/register&lt;/font&gt;" style="text;html=1;strokeColor=none;fillColor=none;align=center;verticalAlign=middle;whiteSpace=wrap;rounded=0;fontFamily=Times New Roman;" vertex="1" parent="1">
          <mxGeometry x="180" y="210" width="60" height="30" as="geometry" />
        </mxCell>
        <mxCell id="9AJ_TKvjgR83UUV6YRzX-43" value="&lt;font style=&quot;font-size: 14px;&quot;&gt;/login&lt;/font&gt;" style="text;html=1;strokeColor=none;fillColor=none;align=center;verticalAlign=middle;whiteSpace=wrap;rounded=0;fontFamily=Times New Roman;" vertex="1" parent="1">
          <mxGeometry x="340" y="210" width="60" height="30" as="geometry" />
        </mxCell>
        <mxCell id="9AJ_TKvjgR83UUV6YRzX-44" value="&lt;font style=&quot;font-size: 14px;&quot;&gt;/join&lt;/font&gt;" style="text;html=1;strokeColor=none;fillColor=none;align=center;verticalAlign=middle;whiteSpace=wrap;rounded=0;fontFamily=Times New Roman;" vertex="1" parent="1">
          <mxGeometry x="500" y="210" width="60" height="30" as="geometry" />
        </mxCell>
        <mxCell id="9AJ_TKvjgR83UUV6YRzX-45" value="&lt;font style=&quot;font-size: 14px;&quot;&gt;/home&lt;/font&gt;" style="text;html=1;strokeColor=none;fillColor=none;align=center;verticalAlign=middle;whiteSpace=wrap;rounded=0;fontFamily=Times New Roman;" vertex="1" parent="1">
          <mxGeometry x="660" y="210" width="60" height="30" as="geometry" />
        </mxCell>
        <mxCell id="9AJ_TKvjgR83UUV6YRzX-46" value="&lt;font style=&quot;font-size: 14px;&quot;&gt;/team&lt;/font&gt;" style="text;html=1;strokeColor=none;fillColor=none;align=center;verticalAlign=middle;whiteSpace=wrap;rounded=0;fontFamily=Times New Roman;" vertex="1" parent="1">
          <mxGeometry x="820" y="210" width="60" height="30" as="geometry" />
        </mxCell>
        <mxCell id="9AJ_TKvjgR83UUV6YRzX-47" value="" style="endArrow=classic;html=1;rounded=0;exitX=0.25;exitY=1;exitDx=0;exitDy=0;entryX=0.937;entryY=0.001;entryDx=0;entryDy=0;entryPerimeter=0;fontFamily=Times New Roman;" edge="1" parent="1">
          <mxGeometry width="50" height="50" relative="1" as="geometry">
            <mxPoint x="520" y="280" as="sourcePoint" />
            <mxPoint x="520" y="360" as="targetPoint" />
          </mxGeometry>
        </mxCell>
        <mxCell id="9AJ_TKvjgR83UUV6YRzX-51" value="" style="endArrow=classic;html=1;rounded=0;exitX=0.25;exitY=1;exitDx=0;exitDy=0;entryX=0.937;entryY=0.001;entryDx=0;entryDy=0;entryPerimeter=0;fontFamily=Times New Roman;" edge="1" parent="1">
          <mxGeometry width="50" height="50" relative="1" as="geometry">
            <mxPoint x="209.64" y="280" as="sourcePoint" />
            <mxPoint x="209.64" y="360" as="targetPoint" />
          </mxGeometry>
        </mxCell>
        <mxCell id="9AJ_TKvjgR83UUV6YRzX-52" value="" style="endArrow=classic;html=1;rounded=0;edgeStyle=elbowEdgeStyle;elbow=vertical;entryX=0.124;entryY=-0.008;entryDx=0;entryDy=0;entryPerimeter=0;exitX=0.923;exitY=1.018;exitDx=0;exitDy=0;exitPerimeter=0;" edge="1" parent="1" source="9AJ_TKvjgR83UUV6YRzX-4" target="9AJ_TKvjgR83UUV6YRzX-13">
          <mxGeometry width="50" height="50" relative="1" as="geometry">
            <mxPoint x="231" y="284" as="sourcePoint" />
            <mxPoint x="300" y="350" as="targetPoint" />
          </mxGeometry>
        </mxCell>
        <mxCell id="9AJ_TKvjgR83UUV6YRzX-53" value="" style="shape=curlyBracket;whiteSpace=wrap;html=1;rounded=1;flipH=1;labelPosition=right;verticalLabelPosition=middle;align=left;verticalAlign=middle;rotation=-90;" vertex="1" parent="1">
          <mxGeometry x="790" y="140" width="20" height="400" as="geometry" />
        </mxCell>
        <mxCell id="9AJ_TKvjgR83UUV6YRzX-54" value="" style="endArrow=classic;html=1;rounded=0;entryX=0.937;entryY=0.001;entryDx=0;entryDy=0;entryPerimeter=0;fontFamily=Times New Roman;" edge="1" parent="1">
          <mxGeometry width="50" height="50" relative="1" as="geometry">
            <mxPoint x="680" y="280" as="sourcePoint" />
            <mxPoint x="680" y="340" as="targetPoint" />
          </mxGeometry>
        </mxCell>
        <mxCell id="9AJ_TKvjgR83UUV6YRzX-55" value="" style="endArrow=classic;html=1;rounded=0;entryX=0.937;entryY=0.001;entryDx=0;entryDy=0;entryPerimeter=0;fontFamily=Times New Roman;" edge="1" parent="1">
          <mxGeometry width="50" height="50" relative="1" as="geometry">
            <mxPoint x="840" y="280" as="sourcePoint" />
            <mxPoint x="840" y="340" as="targetPoint" />
          </mxGeometry>
        </mxCell>
        <mxCell id="9AJ_TKvjgR83UUV6YRzX-56" value="" style="endArrow=classic;html=1;rounded=0;exitX=0.25;exitY=1;exitDx=0;exitDy=0;entryX=0.937;entryY=0.001;entryDx=0;entryDy=0;entryPerimeter=0;fontFamily=Times New Roman;" edge="1" parent="1">
          <mxGeometry width="50" height="50" relative="1" as="geometry">
            <mxPoint x="150" y="280" as="sourcePoint" />
            <mxPoint x="150" y="360" as="targetPoint" />
          </mxGeometry>
        </mxCell>
      </root>
    </mxGraphModel>
  </diagram>
</mxfile>
